# xmcd
#
# Track frame offsets:
#	150
#	11477
#	27667
#	38250
#	52507
#	64045
#	77342
#	92232
#	103867
#	118260
#	132787
#	148295
#
# Disc length: 2151 seconds
#
# Revision: 0
# Processed by: cddbd v1.5.2PL0 Copyright (c) Steve Scherf et al.
# Submitted via: audiograbber 1.83.01
#
DISCID=9608650c
DTITLE=The Jordanaires and The Dinning Sisters - Rhinestone Christian
DYEAR=1997
DGENRE=Gospel
TTITLE0=Turn Your Radio On
TTITLE1=Rise Again
TTITLE2=Get Off The Fence
TTITLE3=Keep Your Prayer Line Open
TTITLE4=Rhinestone Christian
TTITLE5=Thine Be Done
TTITLE6=He Was There All The Time
TTITLE7=Nobody Answered
TTITLE8=Learning To Lean
TTITLE9=Sweet Jesus From Galilee
TTITLE10=You
TTITLE11=He Touched Me
EXTD=
EXTT0=
EXTT1=
EXTT2=
EXTT3=
EXTT4=
EXTT5=
EXTT6=
EXTT7=
EXTT8=
EXTT9=
EXTT10=
EXTT11=
PLAYORDER=
